HIERARCHY
ROOT Hip
{
    OFFSET 0.0 0.0 0.0
    CHANNELS 6 Xposition Yposition Zposition Zrotation Xrotation Yrotation
    JOINT RightHip
    {
        OFFSET -6.702904723477252 0.0 0.0
        CHANNELS 3 Zrotation Xrotation Yrotation
        JOINT RightKnee
        {
            OFFSET 0.0 0.0 -23.135301391752574
            CHANNELS 3 Zrotation Xrotation Yrotation
            JOINT RightAnkle
            {
                OFFSET 0.0 0.0 -29.366199440065486
                CHANNELS 3 Zrotation Xrotation Yrotation
                End Site
                {
                    OFFSET 0.0 -11.746479776026195 0.0
                }
            }
        }
    }
    JOINT LeftHip
    {
        OFFSET 6.702904723477252 0.0 0.0
        CHANNELS 3 Zrotation Xrotation Yrotation
        JOINT LeftKnee
        {
            OFFSET 0.0 0.0 -23.135301391752574
            CHANNELS 3 Zrotation Xrotation Yrotation
            JOINT LeftAnkle
            {
                OFFSET 0.0 0.0 -29.366199440065486
                CHANNELS 3 Zrotation Xrotation Yrotation
                End Site
                {
                    OFFSET 0.0 -11.746479776026195 0.0
                }
            }
        }
    }
    JOINT Spine
    {
        OFFSET 0.0 0.0 19.30944724474741
        CHANNELS 3 Zrotation Xrotation Yrotation
        JOINT Thorax
        {
            OFFSET 0.0 0.0 22.139154035956384
            CHANNELS 3 Zrotation Xrotation Yrotation
            JOINT Neck
            {
                OFFSET 0.0 0.0 2.8101344150050207
                CHANNELS 3 Zrotation Xrotation Yrotation
                JOINT Head
                {
                    OFFSET 0.0 0.0 8.344830796704294
                    CHANNELS 3 Zrotation Xrotation Yrotation
                    End Site
                    {
                        OFFSET -3.337932318681718 0.0 0.0
                    }
                }
            }
            JOINT LeftShoulder
            {
                OFFSET 12.158751895224091 0.0 0.0
                CHANNELS 3 Zrotation Xrotation Yrotation
                JOINT LeftElbow
                {
                    OFFSET 22.20874665359871 0.0 0.0
                    CHANNELS 3 Zrotation Xrotation Yrotation
                    JOINT LeftWrist
                    {
                        OFFSET 14.329589936787446 0.0 0.0
                        CHANNELS 3 Zrotation Xrotation Yrotation
                        End Site
                        {
                            OFFSET 5.731835974714978 0.0 0.0
                        }
                    }
                }
            }
            JOINT RightShoulder
            {
                OFFSET -12.158751895224091 0.0 0.0
                CHANNELS 3 Zrotation Xrotation Yrotation
                JOINT RightElbow
                {
                    OFFSET -22.20874665359871 0.0 0.0
                    CHANNELS 3 Zrotation Xrotation Yrotation
                    JOINT RightWrist
                    {
                        OFFSET -14.329589936787446 0.0 0.0
                        CHANNELS 3 Zrotation Xrotation Yrotation
                        End Site
                        {
                            OFFSET -5.731835974714978 0.0 0.0
                        }
                    }
                }
            }
            JOINT Nose
            {
                OFFSET 0.0 0.0 7.959572016232479
                CHANNELS 3 Zrotation Xrotation Yrotation
                End Site
                {
                    OFFSET -3.183828806492992 0.0 0.0
                }
            }
        }
    }
}
MOTION
Frames: 7
Frame Time: 0.03333333333333333
-1.3910833238223155 44.55143571888481 6.869733724754941 0.09927940122246828 -0.6971512407207655 1.8037845517026898 -1.3291861858150367 -9.706679277921971 10.158353347296297 5.590663536451277 20.453143886313637 -14.214262009749556 1.2424041724466862e-17 9.429121120102268e-36 8.696829207126804e-17 2.5956527241490903 -8.269402000049993 -10.034534629456594 -6.244282630631968 19.75549190562277 14.958900713910436 0.0 0.0 -1.8636062586700294e-17 1.837212187232849e-17 5.151850956224821 -2.35597884027087e-16 -2.01732035996638 0.03868002369254118 -1.836218757760786 0.8780361745987919 -3.6094146448366766 -14.792614095945911 0.0 0.0 4.550305281585988e-16 -76.70449274248847 53.058597212576615 1.5399822179 -1.1574681891954803e-14 -5.280301923993121e-15 -130.95561357589088 -2.3854160110976376e-15 0.0 0.0 76.95899144437192 43.46565064098636 1.819822886426659 4.178535710679316e-15 1.8889922666343e-14 136.12889943753817 -2.3854160110976376e-15 0.0 0.0 3.975693351829396e-16 -7.952357331918516e-16 2.759028190607067e-33
-1.3886461118657227 44.459295418611916 6.889110642683511 1.084042055865914 -0.7038536740287837 1.999808945040371 -2.111784252954039 -9.488292884613792 9.909339403762583 5.551229529020717 20.20269395988878 -14.102791027902036 2.4848083448933725e-17 -1.1449647074409897e-35 -5.280217732898417e-17 1.584365717072979 -8.427341925961152 -10.288203618091394 -6.182630219173772 19.62370632940651 15.560313471381065 0.0 0.0 -2.9196498052497126e-16 -1.3438370028330205e-17 5.19913679110152 2.9598508930827134e-16 -2.408628510239875 0.020834777434781047 -1.9835442226858608 0.3056451175980529 -3.6464360438004593 -14.651056934139747 1.987846675914698e-16 -2.4848083448933722e-17 1.1259287812798094e-15 -77.13293019098984 53.10298550814917 1.2492409770437636 -8.435617741084695e-15 3.1253444579010944e-15 -130.65871560832133 -7.951386703658792e-16 -2.2069531490250793e-32 3.1805546814635168e-15 77.29862405951773 42.742036438632496 1.626487675440001 8.252589598402923e-15 3.580808508503046e-15 136.91215928646932 -2.3854160110976376e-15 0.0 0.0 0.0 0.0 0.0
-1.3886801976676724 44.4605840533645 6.888839645413407 1.1516870742516643 -0.6501005005553371 1.6907213297681356 -1.5506941638245668 -9.206976762236838 9.996861499519305 5.355079774446774 19.804391610174772 -13.956108965070667 9.93923337957349e-17 -4.310455369189608e-35 -4.969616689786745e-17 1.5871038341921866 -8.70505949190922 -10.759078294807974 -6.0116784784235335 19.807996125296636 15.710367015982625 0.0 0.0 3.727212517340059e-17 5.814310619891419e-16 5.106537004854208 3.4794147407443243e-16 -2.42530000125337 0.012404711507207981 -1.8982222146876122 0.28366195285794304 -3.616718179016959 -11.812721731768983 0.0 0.0 4.620190516286115e-16 -77.85769929867256 52.3376352985741 1.477794128232318 -1.1040263355457071e-14 8.968341356000097e-15 -131.3061113906915 1.1927080055488188e-15 0.0 0.0 79.06548644461384 41.575996743752626 0.7536051994670242 -5.261751413261e-15 -4.784727000983791e-15 137.69317761372193 3.1805546814635168e-15 0.0 0.0 0.0 0.0 0.0
-1.388541232475109 44.45533038860397 6.889944480437685 1.1856330631901708 -0.6146423754113591 1.579271419722496 -1.5065602473996436 -9.245459817891371 10.066622101526844 5.2993073086050835 19.898330047029607 -13.948333938139973 0.0 0.0 -2.4848083448933725e-17 1.5657386305137655 -8.719193206910376 -10.836274130857298 -5.852243544075821 19.81360398511797 15.60086961724806 0.0 0.0 2.4848083448933725e-17 1.970651704002731e-16 5.04755723036975 4.339019333710601e-17 -2.376405665159123 0.008794639327948637 -1.7978787867955281 0.2743675241027542 -3.5852181119154296 -9.038187389519829 1.9878466759146977e-16 4.0410519086152575e-36 2.3295078233375363e-18 -77.90334865176662 52.077346323156796 1.8500374914387807 2.2621338421626828e-14 -3.781971478840555e-15 -131.60240922733138 -1.1927080055488188e-15 0.0 0.0 79.08349990974997 41.5040085855392 0.6926441773276948 -1.1837126562362106e-14 4.662326034834254e-15 137.0037051611943 2.3854160110976376e-15 0.0 0.0 -1.2931366107568824e-34 -7.951386703658792e-16 -1.8636062586700294e-17
-1.3870086052625623 44.397388472149615 6.90212954773652 0.29039908867309405 -0.6664920162537411 1.5644459264404413 -0.6124675302934832 -9.266076508473462 10.16295744699072 5.341555090896362 19.9220796161901 -14.174423661435492 0.0 0.0 -9.93923337957349e-17 2.4645939259180194 -8.722950890559462 -10.6514775019789 -5.795686115377013 19.857403856263257 15.16436930447166 -1.987846675914698e-16 -1.5086593792163628e-34 8.696829207126804e-17 -1.000402135099482e-16 5.033126548309125 1.2557973775010162e-17 -1.6324377817191877 0.014397092703688693 -1.6449719589985423 0.4462483343889377 -3.5540139118150083 -7.393867817616051 0.0 0.0 6.056720340677595e-17 -76.74016606043611 52.15981927147939 1.5495234344847222 -4.964707274592137e-15 1.8698690347279754e-14 -131.33619839511022 2.3854160110976376e-15 6.620859447075238e-32 3.1805546814635168e-15 78.95739074641234 41.26621199458674 0.3850215533225474 -7.307325997519515e-15 3.1348903134076774e-15 133.56070678746985 -7.951386703658792e-16 0.0 0.0 0.0 0.0 -1.2424041724466862e-17
-1.3898464410678606 44.50467460396021 6.87956749221021 0.23004550826898934 -0.6663843368471671 1.7328181973017653 -0.5705080897739818 -9.333260882217656 10.08666343749671 5.362150497316018 19.915183363689412 -14.473516825407351 0.0 0.0 4.969616689786745e-17 2.4844461272739102 -8.736971894563863 -10.51355319666301 -5.940609076335557 19.85680259921847 15.552501781665125 0.0 0.0 2.609048762138041e-16 3.430990828851184e-17 5.086845626706869 -2.1245524426150771e-16 -1.5582608087395107 0.016316433333980467 -1.6736484321378848 0.5119904159902322 -3.5696557772564095 -3.5112296375748615 0.0 0.0 1.653950554569651e-16 -76.17605393475421 52.46596825020591 1.185851917072633 -8.249762633840034e-15 1.0193733068682353e-14 -130.1061674250611 7.951386703658794e-16 6.361109362927035e-15 -4.4139062980501586e-32 78.55294639478396 41.07798777911763 0.9089693816106388 1.2702225967557012e-14 1.7427813397087932e-15 136.13496769318874 -4.770832022195274e-15 -1.3241718894150476e-31 3.1805546814635164e-15 0.0 1.9412565194479472e-19 0.0
-1.3901496658942536 44.51613820542437 6.87715672011506 1.0066403591007056 -0.6307505120018853 2.039925257705284 -1.4216634135696073 -9.464909465546572 10.12083919135797 5.488214662770686 19.88919412269847 -14.057802421133303 9.939233379573489e-17 7.765026077791787e-19 -1.242404172446686e-16 1.6655642837248699 -8.401774644732875 -10.500437926308548 -6.243368716567279 19.34544240914224 15.455611289757517 0.0 0.0 3.7272125173400585e-16 -4.946586466595286e-17 5.009850240021871 1.1307241478848892e-15 -2.382649285200884 0.02192177942697495 -1.9522242338229976 0.5857960837441083 -3.6301087515306634 -5.835025548580782 0.0 0.0 1.4986500330138153e-16 -76.30857553219101 52.07559395608904 1.4327292717874487 -2.6131408317916415e-15 5.7995868232436405e-15 -131.48985826698853 -3.1805546814635168e-15 8.827812596100317e-32 -3.1805546814635168e-15 78.96124229913673 39.98541657193231 0.7856672307609804 -1.2685434580686193e-14 -1.8610698074085447e-15 137.20279052914088 2.3854160110976376e-15 0.0 0.0 1.987846675914698e-16 -3.8825130388958945e-19 -1.2424041724466862e-17
